PathFileType	4	(X/Y/Z)	9_coords_data.trc
DataRate	CameraRate	NumFrames	NumMarkers	Units	OrigDataRate	OrigDataStartFrame	OrigNumFrames
30.0	30.0	9	21	m	30.0	40	49
Frame#	Time	THUMB_TIP	THUMB_IP	THUMB_MCP	THUMB_CMC	INDEX_TIP	INDEX_DIP	INDEX_PIP	INDEX_MCP	MIDDLE_TIP	MIDDLE_DIP	MIDDLE_PIP	MIDDLE_MCP	RING_TIP	RING_DIP	RING_PIP	RING_MCP	PINKY_TIP	PINKY_DIP	PINKY_PIP	PINKY_MCP	WRIST
X1	Y1	Z1	X2	Y2	Z2	X3	Y3	Z3	X4	Y4	Z4	X5	Y5	Z5	X6	Y6	Z6	X7	Y7	Z7	X8	Y8	Z8	X9	Y9	Z9	X10	Y10	Z10	X11	Y11	Z11	X12	Y12	Z12	X13	Y13	Z13	X14	Y14	Z14	X15	Y15	Z15	X16	Y16	Z16	X17	Y17	Z17	X18	Y18	Z18	X19	Y19	Z19	X20	Y20	Z20	X21	Y21	Z21
39	1.3	0.07431749725341796	-0.030504600524902344	1.0535699462890624	0.05466009902954101	-0.030885400772094725	1.0722099609375	0.03213010025024414	-0.02562809944152832	1.0901199951171876	0.011573399543762207	-0.003763609886169433	1.1035699462890625	0.06439969635009765	-0.009860170364379884	0.9815339965820312	0.04790539932250976	-0.014635000228881836	0.994843017578125	0.030933599472045898	-0.018704900741577147	1.0098099975585937	0.01377649974822998	-0.01814889907836914	1.04597998046875	0.05397650146484375	0.022344200134277344	0.962875	0.03905810165405273	0.016121400833129882	0.9806110229492188	0.018973100662231446	0.009298919677734375	1.0020999755859374	0.003139060020446777	0.0030609400272369382	1.041510009765625	0.03998329925537109	0.04110269927978515	0.9719509887695312	0.024783700942993165	0.03714950180053711	0.989197021484375	0.0067569599151611325	0.030921100616455078	1.0104199829101563	-0.0023292500972747804	0.023967699050903322	1.0476800537109374	0.03624470138549805	0.06874990081787109	1.0165999755859374	0.020296600341796874	0.06477110290527344	1.0262900390625	0.005767059803009033	0.05842639923095703	1.037469970703125	-0.004235010147094726	0.04509759902954102	1.060719970703125	-0.025307300567626954	0.006036039829254151	1.1236500244140626
40	1.3333333333333333	0.07472480010986328	-0.03047529983520508	1.0535	0.05500979995727539	-0.030932300567626952	1.0721600341796875	0.03243249893188477	-0.02574760055541992	1.0903599853515624	0.011976799964904784	-0.003724139928817749	1.1036300048828125	0.06451789855957031	-0.010838700294494628	0.9813079833984375	0.048008399963378905	-0.01560159969329834	0.99468701171875	0.031097099304199217	-0.01948430061340332	1.009739990234375	0.013992899894714356	-0.018665000915527342	1.046030029296875	0.054236400604248045	0.021586799621582033	0.96275	0.03925979995727539	0.015379799842834472	0.98052099609375	0.01907819938659668	0.008657520294189452	1.002030029296875	0.0034251899719238282	0.002495120048522949	1.0414200439453125	0.04060820007324219	0.040451499938964845	0.9719420166015625	0.025289600372314452	0.03655160140991211	0.9891820068359375	0.007133649826049805	0.030331100463867187	1.0103400268554688	-0.002049449920654297	0.02347599983215332	1.04756005859375	0.03684000015258789	0.0680967025756836	1.0165900268554688	0.02068790054321289	0.06421849822998046	1.02622998046875	0.006123350143432617	0.057965999603271486	1.037300048828125	-0.004034160137176513	0.04464179992675781	1.06052001953125	-0.02498119926452637	0.005740089893341065	1.1236300048828125
41	1.3666666666666667	0.07505989837646485	-0.030351200103759766	1.0533199462890626	0.05535770034790039	-0.03092919921875	1.072010009765625	0.03282059860229492	-0.02591160011291504	1.0901800537109374	0.012411600112915038	-0.0038471200466156	1.1033599853515625	0.06381159973144532	-0.012320500373840332	0.9806290283203125	0.04741609954833984	-0.016834699630737304	0.9942550048828125	0.030675500869750977	-0.020541999816894533	1.009530029296875	0.01423859977722168	-0.019127899169921875	1.04618994140625	0.0545724983215332	0.020632600784301756	0.96268798828125	0.039450000762939454	0.014536100387573242	0.9804219970703125	0.019228399276733397	0.007998370170593261	1.0019600219726563	0.003464190006256103	0.002040390014648437	1.0414300537109376	0.04150230026245117	0.040066398620605466	0.97222802734375	0.025985300064086916	0.03615760040283203	0.9892449951171876	0.007698200225830078	0.029965999603271485	1.01022998046875	-0.00175993001461029	0.023067699432373048	1.0474599609375	0.03773799896240235	0.0678279037475586	1.017030029296875	0.021595199584960936	0.06400260162353516	1.026469970703125	0.006853179931640625	0.05776089859008789	1.0373800048828126	-0.0035283899307250967	0.04430590057373047	1.0604000244140626	-0.024748100280761718	0.0054481201171875	1.1233699951171876
42	1.4	0.07514779663085938	-0.031003499984741213	1.0528499755859375	0.05528070068359375	-0.03124869918823242	1.07152001953125	0.03280459976196289	-0.026015699386596678	1.0898299560546876	0.012794099807739257	-0.004313889980316162	1.10293994140625	0.06394670104980468	-0.014685500144958495	0.980843994140625	0.04734590148925781	-0.018814599990844727	0.9942739868164062	0.030488100051879883	-0.02213479995727539	1.0094000244140624	0.01442020034790039	-0.019606199264526367	1.04581005859375	0.05480120086669922	0.019891099929809572	0.96264501953125	0.03951129913330078	0.0139064998626709	0.9803150024414062	0.019310199737548828	0.007372260093688965	1.001739990234375	0.003769670009613037	0.001623720049858093	1.0411800537109375	0.04211130142211914	0.03962860107421875	0.9723740234375	0.026440200805664064	0.03580490112304688	0.98927099609375	0.007918000221252441	0.02965909957885742	1.0100999755859374	-0.0013884299993515011	0.02273550033569336	1.0473499755859375	0.03909569931030273	0.06776930236816406	1.0178400268554688	0.02280019950866699	0.06396770095825195	1.027050048828125	0.007839000225067139	0.0576890983581543	1.03775	-0.002989059925079345	0.04390689849853516	1.06025	-0.024460500717163085	0.005242420196533203	1.1236600341796874
43	1.4333333333333333	0.07499690246582032	-0.031993900299072266	1.0523699951171874	0.055202999114990235	-0.03176129913330078	1.070989990234375	0.032848499298095704	-0.02658849906921387	1.0893599853515625	0.012998299598693848	-0.004604879856109619	1.1026500244140625	0.06423269653320313	-0.0161697998046875	0.9811849975585938	0.04748270034790039	-0.020219600677490235	0.994344970703125	0.03048469924926758	-0.023290599822998047	1.0093099975585937	0.014327699661254883	-0.02014990043640137	1.0458199462890625	0.05509830093383789	0.019048099517822267	0.962572021484375	0.03973709869384766	0.013125200271606446	0.9802440185546875	0.019315999984741213	0.006698919773101807	1.0015800170898437	0.003945379972457885	0.001124449968338012	1.0411099853515624	0.04250270080566406	0.03902180099487305	0.9723090209960937	0.026765600204467773	0.035264801025390625	0.9892050170898438	0.008089529991149902	0.029190799713134766	1.0099099731445313	-0.001166069984436035	0.02229210090637207	1.0471700439453124	0.0395990982055664	0.06868270111083985	1.018530029296875	0.02318390083312988	0.06457510375976562	1.0276400146484375	0.008250020027160644	0.05806710052490234	1.0381199951171876	-0.00269894003868103	0.043597999572753905	1.0600899658203125	-0.024225799560546876	0.004856880187988281	1.1230400390625
44	1.4666666666666666	0.07505370330810547	-0.032733600616455076	1.0518900146484376	0.05530500030517578	-0.03223500061035156	1.0705	0.03289889907836914	-0.02707029914855957	1.089300048828125	0.012647700309753419	-0.005140379905700683	1.1028599853515626	0.06474739837646484	-0.016692399978637695	0.981427001953125	0.04784420013427734	-0.020701000213623047	0.9943740234375	0.03078350067138672	-0.023828699111938478	1.00922998046875	0.014536299705505372	-0.020648500442504884	1.0454599609375	0.05549819946289063	0.018587099075317384	0.9624860229492187	0.040076099395751956	0.01260789966583252	0.9800969848632812	0.01968950080871582	0.0062207598686218266	1.0014099731445312	0.0041692500114440915	0.000657356023788452	1.0409000244140625	0.043344799041748046	0.0387510986328125	0.9723920288085938	0.027491199493408204	0.03500830078125	0.98914501953125	0.008662989616394043	0.028899799346923827	1.00972998046875	-0.000826584994792938	0.021938499450683595	1.04693994140625	0.04039059829711914	0.06869950103759766	1.0190599975585937	0.023916200637817384	0.06462539672851562	1.0278800048828125	0.008751660346984864	0.05805979919433594	1.0381800537109376	-0.002360199928283691	0.043223499298095706	1.0598900146484376	-0.023866899490356447	0.004636300086975098	1.1231199951171875
45	1.5	0.07511990356445312	-0.03342850112915039	1.0518499755859374	0.05546630096435547	-0.032570701599121094	1.07047998046875	0.032993000030517576	-0.027383199691772463	1.0891600341796874	0.013063799858093262	-0.005571290016174317	1.1025400390625	0.065581298828125	-0.017434200286865233	0.9818629760742188	0.048633399963378905	-0.021397199630737305	0.9946510009765624	0.03130820083618164	-0.024486400604248046	1.009260009765625	0.014695899963378906	-0.021083700180053712	1.0454300537109376	0.05612820053100586	0.017908300399780273	0.9624829711914062	0.04059109878540039	0.011979700088500977	0.9801160278320312	0.02010219955444336	0.005717360019683838	1.0013900146484376	0.004444340229034424	0.000238484993577003	1.0406700439453125	0.04450479888916015	0.03842940139770508	0.9726309814453125	0.028388099670410158	0.0346963996887207	0.9892570190429687	0.00930084991455078	0.02861960029602051	1.0096799926757813	-0.00040875598788261405	0.021649299621582033	1.0467099609375	0.041439300537109376	0.0688864974975586	1.0198300170898438	0.02489500045776367	0.06475379943847656	1.028489990234375	0.009603890419006347	0.058157100677490234	1.038469970703125	-0.001838770031929016	0.042967899322509766	1.0596500244140625	-0.02358989906311035	0.0044643797874450684	1.122780029296875
46	1.5333333333333334	0.0753678970336914	-0.03378099822998047	1.0517099609375	0.055502201080322264	-0.03271340179443359	1.0703399658203125	0.033090999603271484	-0.027565500259399415	1.089239990234375	0.013047200202941894	-0.005216119766235351	1.103030029296875	0.06630770111083985	-0.018166599273681642	0.9820960083007813	0.04933789825439453	-0.02203459930419922	0.9948109741210938	0.03191020011901855	-0.025011699676513673	1.0094400024414063	0.014906000137329102	-0.02144580078125	1.0453499755859375	0.0567333984375	0.01743050003051758	0.962635009765625	0.04111579895019531	0.011563699722290039	0.980155029296875	0.020533000946044922	0.005339139938354492	1.0014299926757813	0.004721220016479492	-5.5020198225975e-05	1.0406700439453125	0.04564979934692383	0.038457099914550784	0.9733259887695312	0.029338699340820312	0.03468980026245117	0.9894910278320312	0.009946160316467285	0.028539899826049805	1.0096500244140625	-6.3356898725032e-05	0.021463499069213868	1.04656005859375	0.042449699401855466	0.06895970153808594	1.0205599975585937	0.025798999786376953	0.06480049896240235	1.029010009765625	0.010311599731445312	0.05818420028686523	1.03881005859375	-0.001662459969520568	0.042765701293945316	1.059510009765625	-0.023531700134277345	0.004197370052337645	1.122300048828125
47	1.5666666666666667	0.07544039916992187	-0.034153900146484374	1.0513499755859375	0.055561698913574216	-0.03282809829711914	1.0701500244140625	0.03318470001220703	-0.02769659996032715	1.0891199951171875	0.0132322998046875	-0.005721099853515625	1.1025	0.06636289978027343	-0.018406099319458007	0.9815059814453125	0.04953340148925781	-0.022171100616455077	0.9946199951171875	0.0322135009765625	-0.0250841007232666	1.0094400024414063	0.015103400230407715	-0.021670700073242188	1.04518994140625	0.056894500732421874	0.017329099655151368	0.9625339965820312	0.04130849838256836	0.011455100059509277	0.9801589965820312	0.020700000762939454	0.005191120147705078	1.0013200073242188	0.004846000194549561	-0.00023795700073242103	1.040530029296875	0.04665019989013672	0.03850630187988281	0.973593017578125	0.030166799545288087	0.03472000122070312	0.989791015625	0.010559399604797364	0.028527599334716797	1.0096799926757813	8.712899684906e-05	0.021319400787353514	1.046489990234375	0.04323889923095703	0.06856539916992188	1.021010009765625	0.026566099166870118	0.06453610229492188	1.0293599853515625	0.010776700019836426	0.05798960113525391	1.038969970703125	-0.001453600049018859	0.042637199401855466	1.0593699951171875	-0.023395299911499023	0.00420251989364624	1.1227099609375
